# This file uses centimeters as units for non-parametric coordinates.

mtllib Corner.mtl
g default
v 2.895638 -1.200539 2.164783
v 2.456207 -1.200539 1.725355
v -2.327974 -1.200539 1.747181
v -2.928246 -1.200539 1.908022
v -3.367672 -1.200539 2.347449
v -3.528515 -1.200539 2.947719
v -3.543636 -1.200539 7.747169
v -3.104206 -1.200539 8.186592
v -2.503937 -1.200539 8.347443
v -1.903669 -1.200539 8.186592
v 2.895638 -1.200539 3.365321
v 3.056480 -1.200539 2.765052
v -2.327974 -1.200539 2.947719
v -2.327974 1.200539 2.947719
v 2.895638 1.010764 2.164783
v 2.725490 1.200539 2.263018
v 2.377959 1.200539 1.915489
v 2.456207 1.010764 1.725355
v -2.327974 1.010764 1.747181
v -2.302565 1.200539 1.936842
v -2.830011 1.200539 2.078169
v -2.928246 1.010764 1.908022
v -3.367672 1.010764 2.347449
v -3.197525 1.200539 2.445684
v -3.338819 1.200539 2.972997
v -3.528515 1.010764 2.947719
v -3.543636 1.010764 7.747169
v -3.353614 1.200539 7.668809
v -3.005971 1.200539 8.016445
v -3.104206 1.010764 8.186592
v -2.503937 1.010764 8.347443
v -2.503937 1.200539 8.150972
v -2.002129 1.200539 8.016506
v -1.903669 1.010764 8.186592
v 2.895638 1.010764 3.365321
v 2.725430 1.200539 3.267311
v 2.860011 1.200539 2.765052
v 3.056480 1.010764 2.765052
vt 0.524535 0.015255
vt 0.499257 0.003173
vt 0.296213 0.075924
vt 0.273111 0.091773
vt 0.261028 0.117049
vt 0.263202 0.144981
vt 0.334612 0.349229
vt 0.359890 0.361312
vt 0.387822 0.359138
vt 0.410922 0.343289
vt 0.542558 0.066290
vt 0.540384 0.038358
vt 0.314236 0.126958
vt 0.102719 0.699251
vt 0.099290 0.676087
vt 0.103391 0.703786
vt 0.106643 0.725715
vt 0.107689 0.732773
vt 0.138645 0.941503
vt 0.138971 0.943692
vt 0.142598 0.968043
vt 0.143273 0.972577
vt 0.155517 0.996754
vt 0.146720 0.995742
vt 0.002024 0.020155
vt 0.005626 0.044475
vt 0.005952 0.046675
vt 0.036965 0.256011
vt 0.038006 0.263056
vt 0.041241 0.285004
vt 0.041911 0.289546
vt 0.045337 0.312764
vt 0.046012 0.317306
vt 0.049482 0.340500
vt 0.050162 0.345059
vt 0.094516 0.643868
vt 0.095185 0.648381
vt 0.098619 0.671554
vt 0.214249 0.713363
vt 0.111518 0.700262
vt 0.245889 0.926722
vt 0.115630 0.727990
vt 0.249992 0.954430
vt 0.147271 0.941343
vt 0.254089 0.982139
vt 0.151397 0.969056
vt 0.108672 0.001992
vt 0.112797 0.029682
vt 0.010144 0.016633
vt 0.144595 0.243639
vt 0.014247 0.044318
vt 0.148736 0.271386
vt 0.045952 0.258275
vt 0.152859 0.299144
vt 0.050045 0.286018
vt 0.156936 0.326898
vt 0.054144 0.313779
vt 0.201904 0.630251
vt 0.058289 0.341525
vt 0.206018 0.657943
vt 0.103312 0.644871
vt 0.210134 0.685635
vt 0.107416 0.672566
vt 0.815118 0.292950
vt 0.604106 0.291986
vt 0.580329 0.285614
vt 0.563761 0.269044
vt 0.557393 0.245280
vt 0.556723 0.033576
vt 0.572401 0.017904
vt 0.595035 0.011842
vt 0.617650 0.017901
vt 0.830784 0.232007
vt 0.602960 0.246413
vt 0.836851 0.254650
vt 0.830787 0.277283
vn 0.000000 -1.000000 0.000000
vn 0.000000 -1.000000 0.000000
vn 0.000000 -1.000000 -0.000000
vn 0.000000 -1.000000 0.000000
vn 0.000000 -1.000000 0.000000
vn 0.000000 -1.000000 -0.000000
vn 0.000000 -1.000000 -0.000000
vn 0.000000 -1.000000 -0.000000
vn 0.000000 -1.000000 0.000000
vn 0.000000 -1.000000 0.000000
vn 0.000000 -1.000000 0.000000
vn 0.000000 -1.000000 0.000000
vn 0.000000 -1.000000 0.000000
vn 0.864228 0.066265 -0.498717
vn 0.039886 0.998943 -0.022850
vn 0.051010 0.998698 0.000001
vn 0.997750 0.067045 0.000002
vn 0.079046 0.066106 -0.994677
vn 0.013190 0.983246 -0.181807
vn -0.033716 0.073690 -0.996711
vn -0.006893 0.977369 -0.211428
vn -0.498677 0.067757 -0.864136
vn -0.104085 0.977856 -0.181560
vn -0.864135 0.067754 -0.498679
vn -0.071239 0.996623 -0.040842
vn -0.996757 0.073672 -0.032384
vn -0.177571 0.984092 -0.005551
vn -0.994593 0.066124 0.080083
vn -0.238119 0.971078 0.017534
vn -0.498717 0.066270 0.864228
vn -0.027987 0.998414 0.048851
vn -0.000002 0.067032 0.997751
vn -0.000000 0.999853 0.017176
vn 0.676618 0.069897 0.733009
vn 0.041932 0.998099 0.045176
vn 0.735859 0.069965 0.673510
vn 0.092889 0.992000 0.085485
vn 0.866024 0.000000 -0.500002
vn 0.079691 0.000000 -0.996820
vn -0.033905 0.000000 -0.999425
vn -0.499999 0.000000 -0.866026
vn -0.866025 0.000000 -0.500000
vn -0.999470 0.000000 -0.032570
vn -0.996736 0.000000 0.080728
vn -0.500001 0.000000 0.866025
vn 0.000000 0.000000 1.000000
vn 0.678126 0.000000 0.734946
vn 0.737804 0.000000 0.675015
vn 1.000000 0.000000 0.000000
vn 0.000000 1.000000 -0.000000
s 1
g pCylinder1
usemtl initialShadingGroup
f 2/2/1 1/1/2 13/13/3 3/3/4
f 4/4/5 3/3/4 13/13/3 5/5/6
f 6/6/7 5/5/6 13/13/3 7/7/8
f 8/8/9 7/7/8 13/13/3 9/9/10
f 10/10/11 9/9/10 13/13/3 11/11/12
f 12/12/13 11/11/12 13/13/3 1/1/2
s 2
f 15/40/14 16/14/15 37/15/16 38/63/17
f 16/16/15 15/40/14 18/42/18 17/17/19
f 17/18/19 18/42/18 19/44/20 20/19/21
f 20/20/21 19/44/20 22/46/22 21/21/23
f 21/22/23 22/46/22 23/23/24 24/24/25
f 24/25/25 23/49/24 26/51/26 25/26/27
f 25/27/27 26/51/26 27/53/28 28/28/29
f 28/29/29 27/53/28 30/55/30 29/30/31
f 29/31/31 30/55/30 31/57/32 32/32/33
f 32/33/33 31/57/32 34/59/34 33/34/35
f 33/35/35 34/59/34 35/61/36 36/36/37
f 36/37/37 35/61/36 38/63/17 37/38/16
f 1/62/38 2/39/39 18/42/18 15/40/14
f 2/39/39 3/41/40 19/44/20 18/42/18
f 3/41/40 4/43/41 22/46/22 19/44/20
f 4/43/41 5/45/42 23/23/24 22/46/22
f 5/47/42 6/48/43 26/51/26 23/49/24
f 6/48/43 7/50/44 27/53/28 26/51/26
f 7/50/44 8/52/45 30/55/30 27/53/28
f 8/52/45 9/54/46 31/57/32 30/55/30
f 9/54/46 10/56/47 34/59/34 31/57/32
f 10/56/47 11/58/48 35/61/36 34/59/34
f 11/58/48 12/60/49 38/63/17 35/61/36
f 12/60/49 1/62/38 15/40/14 38/63/17
f 14/74/50 16/76/15 17/64/19 20/65/21
f 14/74/50 20/65/21 21/66/23 24/67/25
f 14/74/50 24/67/25 25/68/27 28/69/29
f 14/74/50 28/69/29 29/70/31 32/71/33
f 14/74/50 32/71/33 33/72/35 36/73/37
f 14/74/50 36/73/37 37/75/16 16/76/15
